<svg width="303" height="124" viewBox="0 0 303 124" fill="none" xmlns="http://www.w3.org/2000/svg">
<path d="M57.3871 69.4402L89.2688 89.2802L33.4758 124L0 104.16L57.3871 69.4402Z" fill="#3AEFE8" fill-opacity="0.2"/>
<path d="M57.3871 69.4402L89.2688 89.2802L33.4758 124L0 104.16L57.3871 69.4402Z" fill="#3AEFE8" fill-opacity="0.2"/>
<path d="M1.47498e-06 34.7198L33.4758 54.5598V124L0 104.16L1.47498e-06 34.7198Z" fill="#3AEFE8" fill-opacity="0.2"/>
<path d="M1.47498e-06 34.7198L33.4758 54.5598V124L0 104.16L1.47498e-06 34.7198Z" fill="#3AEFE8" fill-opacity="0.2"/>
<path d="M57.3871 0L89.2688 19.84V89.2802L57.3871 69.4401V0Z" fill="#3AEFE8" fill-opacity="0.2"/>
<path d="M57.3871 0L89.2688 19.84V89.2802L57.3871 69.4401V0Z" fill="#3AEFE8" fill-opacity="0.2"/>
<path d="M57.3871 0L89.2688 19.84L33.4758 54.5601L0 34.7201L57.3871 0Z" fill="#3AEFE8" fill-opacity="0.2"/>
<path d="M57.3871 0L89.2688 19.84L33.4758 54.5601L0 34.7201L57.3871 0Z" fill="#3AEFE8" fill-opacity="0.2"/>
<path d="M270.739 69.4402L302.62 89.2802L246.827 124L213.352 104.16L270.739 69.4402Z" fill="#FFCC1D" fill-opacity="0.2"/>
<path d="M270.739 69.4402L302.62 89.2802L246.827 124L213.352 104.16L270.739 69.4402Z" fill="#FFCC1D" fill-opacity="0.2"/>
<path d="M213.352 34.7198L246.827 54.5598V124L213.352 104.16L213.352 34.7198Z" fill="#FFCC1D" fill-opacity="0.2"/>
<path d="M213.352 34.7198L246.827 54.5598V124L213.352 104.16L213.352 34.7198Z" fill="#FFCC1D" fill-opacity="0.2"/>
<path d="M270.739 0L302.62 19.84V89.2802L270.739 69.4401V0Z" fill="#FFCC1D" fill-opacity="0.2"/>
<path d="M270.739 0L302.62 19.84V89.2802L270.739 69.4401V0Z" fill="#FFCC1D" fill-opacity="0.2"/>
<path d="M270.739 0L302.62 19.84L246.827 54.5601L213.352 34.7201L270.739 0Z" fill="#FFCC1D" fill-opacity="0.2"/>
<path d="M270.739 0L302.62 19.84L246.827 54.5601L213.352 34.7201L270.739 0Z" fill="#FFCC1D" fill-opacity="0.2"/>
<path d="M164.063 69.4402L195.945 89.2802L140.152 124L106.676 104.16L164.063 69.4402Z" fill="#6DDA69" fill-opacity="0.2"/>
<path d="M164.063 69.4402L195.945 89.2802L140.152 124L106.676 104.16L164.063 69.4402Z" fill="#6DDA69" fill-opacity="0.2"/>
<path d="M106.676 34.7198L140.152 54.5598V124L106.676 104.16L106.676 34.7198Z" fill="#6DDA69" fill-opacity="0.2"/>
<path d="M106.676 34.7198L140.152 54.5598V124L106.676 104.16L106.676 34.7198Z" fill="#6DDA69" fill-opacity="0.2"/>
<path d="M164.063 0L195.945 19.84V89.2802L164.063 69.4401V0Z" fill="#6DDA69" fill-opacity="0.2"/>
<path d="M164.063 0L195.945 19.84V89.2802L164.063 69.4401V0Z" fill="#6DDA69" fill-opacity="0.2"/>
<path d="M164.063 0L195.945 19.84L140.152 54.5601L106.676 34.7201L164.063 0Z" fill="#6DDA69" fill-opacity="0.2"/>
<path d="M164.063 0L195.945 19.84L140.152 54.5601L106.676 34.7201L164.063 0Z" fill="#6DDA69" fill-opacity="0.2"/>
</svg>
