<svg width="115" height="144" viewBox="0 0 115 144" fill="none" xmlns="http://www.w3.org/2000/svg">
<path d="M73.9286 80.6403L115 103.68L43.125 144L0 120.96L73.9286 80.6403Z" fill="#3AEFE8" fill-opacity="0.6"/>
<path d="M73.9286 80.6403L115 103.68L43.125 144L0 120.96L73.9286 80.6403Z" fill="#3AEFE8" fill-opacity="0.6"/>
<path d="M1.90013e-06 40.3198L43.125 63.3598V144L0 120.96L1.90013e-06 40.3198Z" fill="#3AEFE8" fill-opacity="0.6"/>
<path d="M1.90013e-06 40.3198L43.125 63.3598V144L0 120.96L1.90013e-06 40.3198Z" fill="#3AEFE8" fill-opacity="0.6"/>
<path d="M73.9285 0L115 23.04V103.68L73.9285 80.6401V0Z" fill="#3AEFE8" fill-opacity="0.6"/>
<path d="M73.9285 0L115 23.04V103.68L73.9285 80.6401V0Z" fill="#3AEFE8" fill-opacity="0.6"/>
<path d="M73.9286 0L115 23.04L43.125 63.3601L0 40.3201L73.9286 0Z" fill="#3AEFE8" fill-opacity="0.6"/>
<path d="M73.9285 0L115 23.04L43.125 63.3601L0 40.3202L73.9285 0Z" fill="#3AEFE8" fill-opacity="0.6"/>
</svg>
