<svg width="90" height="124" viewBox="0 0 90 124" fill="none" xmlns="http://www.w3.org/2000/svg">
<path d="M57.3871 69.4402L89.2688 89.2802L33.4758 124L0 104.16L57.3871 69.4402Z" fill="#3AEFE8" fill-opacity="0.7"/>
<path d="M57.3871 69.4402L89.2688 89.2802L33.4758 124L0 104.16L57.3871 69.4402Z" fill="#3AEFE8" fill-opacity="0.7"/>
<path d="M1.47498e-06 34.7198L33.4758 54.5598V124L0 104.16L1.47498e-06 34.7198Z" fill="#3AEFE8" fill-opacity="0.7"/>
<path d="M1.47498e-06 34.7198L33.4758 54.5598V124L0 104.16L1.47498e-06 34.7198Z" fill="#3AEFE8" fill-opacity="0.7"/>
<path d="M57.3871 0L89.2688 19.84V89.2802L57.3871 69.4401V0Z" fill="#3AEFE8" fill-opacity="0.7"/>
<path d="M57.3871 0L89.2688 19.84V89.2802L57.3871 69.4401V0Z" fill="#3AEFE8" fill-opacity="0.7"/>
<path d="M57.3871 0L89.2688 19.84L33.4758 54.5601L0 34.7201L57.3871 0Z" fill="#3AEFE8" fill-opacity="0.7"/>
<path d="M57.3871 0L89.2688 19.84L33.4758 54.5601L0 34.7201L57.3871 0Z" fill="#3AEFE8" fill-opacity="0.7"/>
</svg>
