<svg width="95" height="124" viewBox="0 0 95 124" fill="none" xmlns="http://www.w3.org/2000/svg">
<path d="M61.0714 69.4402L95 89.2802L35.625 124L0 104.16L61.0714 69.4402Z" fill="#3AEFE8" fill-opacity="0.6"/>
<path d="M61.0714 69.4402L95 89.2802L35.625 124L0 104.16L61.0714 69.4402Z" fill="#3AEFE8" fill-opacity="0.6"/>
<path d="M1.56967e-06 34.7198L35.625 54.5598V124L0 104.16L1.56967e-06 34.7198Z" fill="#3AEFE8" fill-opacity="0.6"/>
<path d="M1.56967e-06 34.7198L35.625 54.5598V124L0 104.16L1.56967e-06 34.7198Z" fill="#3AEFE8" fill-opacity="0.6"/>
<path d="M61.0714 0L95 19.84V89.2802L61.0714 69.4401V0Z" fill="#3AEFE8" fill-opacity="0.6"/>
<path d="M61.0714 0L95 19.84V89.2802L61.0714 69.4401V0Z" fill="#3AEFE8" fill-opacity="0.6"/>
<path d="M61.0714 0L95 19.84L35.625 54.5601L0 34.7201L61.0714 0Z" fill="#3AEFE8" fill-opacity="0.6"/>
<path d="M61.0714 0L95 19.84L35.625 54.5601L0 34.7201L61.0714 0Z" fill="#3AEFE8" fill-opacity="0.6"/>
</svg>
